<svg id="behance-logo" xmlns="http://www.w3.org/2000/svg" width="24" height="24" viewBox="0 0 24 24">
  <g id="Grupo_1" data-name="Grupo 1">
    <path id="Caminho_1" data-name="Caminho 1" d="M62.559,41.8a2.164,2.164,0,0,0-2.129,1.866H64.4A1.8,1.8,0,0,0,62.559,41.8Z" transform="translate(-45.001 -31.127)"/>
    <path id="Caminho_2" data-name="Caminho 2" d="M23.18,49.1H19.658v3.234h3.359c.505-.014,1.438-.173,1.438-1.571C24.455,49.089,23.18,49.1,23.18,49.1Z" transform="translate(-14.639 -36.568)"/>
    <path id="Caminho_3" data-name="Caminho 3" d="M24.036,32.483c0-1.259-.856-1.259-.856-1.259H19.658v2.7h3.3C23.532,33.924,24.036,33.741,24.036,32.483Z" transform="translate(-14.639 -23.252)"/>
    <path id="Caminho_4" data-name="Caminho 4" d="M22.723,0H1.277A1.277,1.277,0,0,0,0,1.277V22.723A1.277,1.277,0,0,0,1.277,24H22.723A1.276,1.276,0,0,0,24,22.723V1.277A1.276,1.276,0,0,0,22.723,0ZM14.908,6.535H19.9v1.49H14.908ZM12.384,14.35c0,3.693-3.843,3.571-3.843,3.571h-6.3V5.822h6.3c1.913,0,3.424,1.056,3.424,3.221a2.1,2.1,0,0,1-1.846,2.3C12.553,11.346,12.384,14.35,12.384,14.35Zm9.338-.2h-6.27a1.968,1.968,0,0,0,2.129,2.106c2.011,0,1.94-1.3,1.94-1.3h2.129c0,3.454-4.14,3.218-4.14,3.218a4.293,4.293,0,0,1-4.649-4.626s0-4.649,4.649-4.649C22.408,8.9,21.722,14.152,21.722,14.152Z"/>
  </g>
</svg>
