<svg xmlns="http://www.w3.org/2000/svg" width="195.547" height="183.991" viewBox="0 0 195.547 183.991">
  <path id="Caminho_49" data-name="Caminho 49" d="M163.613,23.788q0,19.409-7.461,34.33a55.554,55.554,0,0,1-20.979,23.167,56.71,56.71,0,0,1-30.123,8.246,32.045,32.045,0,0,1-17.5-4.824q-7.629-4.824-9.424-12h-.673A33.26,33.26,0,0,1,66.793,84.876a25.473,25.473,0,0,1-14.809,4.656q-15.819,0-25.243-11.5T17.318,46.787q0-16.267,5.273-29.057A47.892,47.892,0,0,1,38.3-2.857q10.434-7.8,21.54-7.8,15.258,0,20.194,12.116h.449l.9-9.648h33.769Q114.025,2.136,112.062,26.2T110.1,55.314v2.244a7.529,7.529,0,0,0,1.458,4.712,5.038,5.038,0,0,0,4.263,1.907q6.731,0,11.051-10.153t4.319-29.786q0-15.37-6.507-27.318A45.53,45.53,0,0,0,105.723-21.7Q93.27-28.38,75.881-28.38a74.017,74.017,0,0,0-37.527,9.76A71.948,71.948,0,0,0,11.372,8.587a73.89,73.89,0,0,0-9.985,37.3q0,29.057,17.389,44.708t49.476,15.65a102.765,102.765,0,0,0,23.279-2.861,105.021,105.021,0,0,0,21.821-7.461V122.4q-19.858,8.414-50.149,8.414-28.5,0-50.541-10.938t-33.32-30.235q-11.275-19.3-11.275-45.437a94.985,94.985,0,0,1,13.575-49.2A93.748,93.748,0,0,1,18.832-40.552Q42.448-53.174,72.178-53.174q27.823,0,48.466,9.256T152.45-17.161Q163.613.341,163.613,23.788ZM79.359,29.51q0-7.292-3.31-11.443a10.583,10.583,0,0,0-8.695-4.151q-7.068,0-11.892,9.536T50.638,45.89q0,8.863,2.861,13.968t8.134,5.1q7.965,0,12.846-9.929T79.359,29.51Z" transform="translate(31.934 53.174)" fill="#f34473"/>
</svg>
