<svg xmlns="http://www.w3.org/2000/svg" width="301" height="301" viewBox="0 0 301 301">
  <g id="behance" transform="translate(2989 3041)">
    <g id="Grupo_14" data-name="Grupo 14" transform="translate(-10412 -2054)">
      <rect id="Retângulo_27" data-name="Retângulo 27" width="301" height="301" transform="translate(7423 -987)" fill="#0057ff"/>
      <g id="Grupo_14-2" data-name="Grupo 14" transform="translate(7482.495 -893.654)">
        <path id="Caminho_36" data-name="Caminho 36" d="M52.8,0A55.75,55.75,0,0,1,67.294,1.594,31.97,31.97,0,0,1,78.6,6.027a18.638,18.638,0,0,1,7.272,8.468,32.388,32.388,0,0,1,2.441,12.9c0,5.629-1.2,10.46-4.035,14.1a28.76,28.76,0,0,1-11.307,9.265c6.874,1.992,12.1,5.629,15.292,10.46a33.275,33.275,0,0,1,1.992,32.227,26.274,26.274,0,0,1-8.866,10.062,41.042,41.042,0,0,1-12.9,5.629,60.47,60.47,0,0,1-14.495,1.992L0,111.227V0ZM49.561,45.128A18.019,18.019,0,0,0,60.42,41.891c2.789-2.042,4.035-5.629,4.035-10.062a15.257,15.257,0,0,0-1.2-6.426,11.13,11.13,0,0,0-3.636-4.035,20.381,20.381,0,0,0-5.23-1.992,32.726,32.726,0,0,0-6.426-.4H24.606v26.2C24.606,45.128,49.561,45.128,49.561,45.128Zm1.2,47.569a36.167,36.167,0,0,0,6.874-.8,13.588,13.588,0,0,0,5.629-2.441,15.147,15.147,0,0,0,4.035-4.433,19.347,19.347,0,0,0,1.594-7.272c0-5.629-1.594-9.663-4.832-12.5-3.238-2.441-7.671-3.636-12.9-3.636H24.606V92.647H50.757Z" transform="translate(0 0)" fill="#fff"/>
        <path id="Caminho_37" data-name="Caminho 37" d="M230.847,100.028c3.238,3.238,8.069,4.832,14.495,4.832a21.9,21.9,0,0,0,11.705-3.238c3.238-2.441,5.23-4.832,6.027-7.272H282.8c-3.238,9.663-8.069,16.537-14.495,20.97a42.906,42.906,0,0,1-23.361,6.426,46.907,46.907,0,0,1-17.334-3.238,32.071,32.071,0,0,1-12.9-8.866,32.346,32.346,0,0,1-8.069-13.3A47.784,47.784,0,0,1,203.8,79.008a46.189,46.189,0,0,1,2.839-16.936,43.931,43.931,0,0,1,8.468-13.7,40.583,40.583,0,0,1,12.9-8.866,45.584,45.584,0,0,1,16.936-3.238c6.874,0,12.9,1.2,18.131,4.035s9.265,6.027,12.5,10.859a49.293,49.293,0,0,1,7.272,15.292,85.531,85.531,0,0,1,.8,17.733H225.219C225.219,90.763,227.609,96.79,230.847,100.028Zm25.4-42.339c-2.839-2.839-7.272-4.433-12.5-4.433a19.434,19.434,0,0,0-8.866,1.992,20.562,20.562,0,0,0-5.629,4.433,10.854,10.854,0,0,0-2.839,5.629,27.888,27.888,0,0,0-.8,5.23h36.262C261.082,64.563,259.04,60.528,256.25,57.689ZM220.785,15.4h45.128V26.259H220.785Z" transform="translate(-102.286 -7.729)" fill="#fff"/>
      </g>
    </g>
  </g>
</svg>
