<svg xmlns="http://www.w3.org/2000/svg" width="288.461" height="288.461" viewBox="0 0 288.461 288.461">
  <g id="codepen" transform="translate(2195 3034)">
    <g id="Grupo_16" data-name="Grupo 16" transform="translate(-2210 -3049)">
      <path id="Caminho_46" data-name="Caminho 46" d="M159.231,15a144.23,144.23,0,1,0,144.23,144.231A144.23,144.23,0,0,0,159.231,15Zm0,264.774A120.543,120.543,0,1,1,279.772,159.231,120.679,120.679,0,0,1,159.231,279.774Z"/>
      <path id="Caminho_47" data-name="Caminho 47" d="M282.815,165.534c-.017-.113-.044-.22-.063-.333-.037-.216-.077-.432-.133-.643-.033-.127-.08-.248-.12-.37-.061-.188-.122-.375-.2-.558-.052-.127-.113-.253-.171-.375-.081-.173-.165-.342-.261-.507-.071-.122-.146-.24-.218-.357-.1-.16-.209-.315-.324-.465-.084-.112-.173-.225-.263-.333-.122-.141-.248-.282-.382-.413-.1-.1-.2-.206-.305-.3-.141-.127-.286-.248-.434-.366-.115-.089-.228-.178-.347-.263-.045-.028-.084-.066-.127-.094l-81.516-54.344a7.662,7.662,0,0,0-8.5,0l-81.516,54.344c-.042.028-.082.066-.126.094-.12.084-.232.173-.345.263q-.226.176-.434.366c-.108.094-.206.2-.307.3-.133.132-.26.272-.38.413-.091.108-.18.221-.265.333-.113.15-.221.305-.321.465-.077.117-.15.234-.221.357-.093.164-.178.333-.26.507-.059.122-.12.248-.172.375-.075.183-.136.371-.2.558-.04.122-.084.243-.12.37-.056.212-.093.427-.133.643-.018.113-.047.22-.061.333a7.373,7.373,0,0,0-.071,1v54.344a7.5,7.5,0,0,0,.071,1c.014.108.042.221.061.328.04.216.077.432.133.643.036.127.08.249.12.371.061.187.122.375.2.563.052.127.113.249.172.371.082.173.167.342.26.511.071.118.143.234.221.352.1.159.208.314.321.464.085.117.174.226.265.333.12.14.247.282.38.413.1.1.2.206.307.3q.208.191.434.366c.113.09.225.179.345.263.044.028.084.066.126.093L189.451,281.6a7.65,7.65,0,0,0,8.5,0l81.516-54.345c.043-.027.082-.065.127-.093.12-.084.232-.173.347-.263.148-.117.293-.239.434-.366.106-.094.2-.2.305-.3.134-.131.261-.272.382-.413.09-.108.178-.216.263-.333.115-.15.221-.305.324-.464.073-.118.148-.234.218-.352.1-.169.18-.338.261-.511.058-.122.119-.244.171-.371.075-.188.136-.376.2-.563.04-.122.087-.244.12-.371.056-.212.1-.427.133-.643.019-.107.047-.22.063-.328a8.047,8.047,0,0,0,.068-1V166.533A7.905,7.905,0,0,0,282.815,165.534Zm-81.448-39.022,60.05,40.031L234.6,184.487l-33.228-22.227Zm-15.33,0v35.748l-33.226,22.227-26.825-17.944Zm-66.187,54.368,19.176,12.826-19.176,12.826ZM186.038,260.9l-60.05-40.031,26.825-17.939,33.226,22.222Zm7.666-49.062-27.109-18.132L193.7,175.574l27.107,18.131Zm7.664,49.062V225.151L234.6,202.928l26.823,17.939Zm66.186-54.367-19.173-12.826,19.173-12.826Z" transform="translate(-34.472 -34.474)"/>
    </g>
  </g>
</svg>
