<svg xmlns="http://www.w3.org/2000/svg" width="300.923" height="293.495" viewBox="0 0 300.923 293.495">
  <g id="github" transform="translate(2605 3036.901)">
    <g id="Grupo_15" data-name="Grupo 15" transform="translate(-2895.221 -3095.332)">
      <path id="Caminho_38" data-name="Caminho 38" d="M440.684,58.431a150.479,150.479,0,0,0-47.567,293.236c7.52,1.39,10.28-3.267,10.28-7.241,0-3.585-.14-15.44-.2-28.013-41.859,9.1-50.692-17.753-50.692-17.753-6.844-17.389-16.706-22.016-16.706-22.016-13.651-9.339,1.029-9.147,1.029-9.147,15.109,1.061,23.065,15.508,23.065,15.508,13.42,23,35.2,16.352,43.785,12.508,1.35-9.725,5.25-16.365,9.553-20.122-33.42-3.8-68.551-16.706-68.551-74.359a58.228,58.228,0,0,1,15.5-40.384c-1.562-3.792-6.712-19.093,1.458-39.821,0,0,12.635-4.041,41.388,15.425a142.653,142.653,0,0,1,75.353,0c28.718-19.467,41.336-15.425,41.336-15.425,8.19,20.728,3.037,36.029,1.475,39.821a58.114,58.114,0,0,1,15.485,40.384c0,57.793-35.2,70.515-68.7,74.24,5.4,4.672,10.206,13.826,10.206,27.864,0,20.132-.174,36.335-.174,41.291,0,4.006,2.708,8.7,10.335,7.221A150.484,150.484,0,0,0,440.684,58.431Z" fill-rule="evenodd"/>
      <path id="Caminho_39" data-name="Caminho 39" d="M315.505,146.66c-.331.75-1.507.974-2.579.461-1.091-.491-1.7-1.512-1.35-2.26.324-.77,1.5-.984,2.591-.471,1.094.491,1.717,1.522,1.338,2.27Zm-1.851-1.37" transform="translate(31.703 127.8)"/>
      <path id="Caminho_40" data-name="Caminho 40" d="M317.907,150.361c-.718.663-2.12.354-3.072-.7-.984-1.049-1.169-2.454-.441-3.127s2.1-.354,3.087.7,1.176,2.452.426,3.127Zm-1.435-1.54" transform="translate(35.396 130.899)"/>
      <path id="Caminho_41" data-name="Caminho 41" d="M320.345,154.42c-.922.643-2.429.042-3.361-1.3s-.922-2.945.02-3.588,2.419-.062,3.364,1.263c.919,1.36.919,2.968-.022,3.62Zm0,0" transform="translate(38.891 135.503)"/>
      <path id="Caminho_42" data-name="Caminho 42" d="M324.272,157.674c-.825.909-2.581.663-3.867-.578-1.316-1.211-1.682-2.935-.855-3.845s2.6-.653,3.9.578c1.306,1.211,1.7,2.943.825,3.845Zm0,0" transform="translate(43.091 140.623)"/>
      <path id="Caminho_43" data-name="Caminho 43" d="M329.45,158.62c-.364,1.176-2.056,1.712-3.76,1.211s-2.816-1.9-2.472-3.085,2.053-1.744,3.77-1.208c1.7.513,2.816,1.881,2.462,3.082Zm0,0" transform="translate(49.126 144.539)"/>
      <path id="Caminho_44" data-name="Caminho 44" d="M334.495,158.328c.042,1.241-1.4,2.27-3.192,2.292-1.8.042-3.254-.964-3.274-2.185,0-1.253,1.413-2.27,3.212-2.3s3.254.964,3.254,2.2Zm0,0" transform="translate(56.394 145.73)"/>
      <path id="Caminho_45" data-name="Caminho 45" d="M339.063,157.261c.214,1.208-1.029,2.452-2.806,2.783-1.747.321-3.364-.429-3.585-1.627-.217-1.241,1.049-2.484,2.793-2.806,1.779-.309,3.371.419,3.6,1.649Zm0,0" transform="translate(63.284 144.848)"/>
    </g>
  </g>
</svg>
