<svg xmlns="http://www.w3.org/2000/svg" width="275.212" height="276.958" viewBox="0 0 275.212 276.958">
  <g id="linkedin-colors" transform="translate(2946.902 2594.958)">
    <g id="Grupo_17" data-name="Grupo 17" transform="translate(-1397 -332.958)">
      <path id="path14" d="M243.837-82.448a20.1,20.1,0,0,1,20.338-19.84H498.71a20.1,20.1,0,0,1,20.338,19.84V154.83A20.093,20.093,0,0,1,498.71,174.67H264.174a20.093,20.093,0,0,1-20.338-19.839V-82.448Z" transform="translate(-1793.738 -2159.712)" fill="#069"/>
      <path id="path28" d="M298.709,95.862V-29.2H257.141V95.862ZM277.925-46.275c14.5,0,23.518-9.6,23.518-21.6-.27-12.272-9.022-21.608-23.243-21.608s-23.516,9.337-23.516,21.608c0,12,9.02,21.6,22.97,21.6h.27Z" transform="translate(-1765.186 -2126.02)" fill="#fff" fill-rule="evenodd"/>
      <path id="path30" d="M273.136,54.3H314.7v-69.84c0-3.738.27-7.472,1.368-10.144,3-7.468,9.845-15.2,21.328-15.2,15.042,0,21.059,11.469,21.059,28.281V54.3h41.565V-17.41c0-38.413-20.507-56.288-47.856-56.288-22.425,0-32.269,12.534-37.739,21.072h.278V-70.763H273.137c.546,11.735,0,125.062,0,125.062Z" transform="translate(-1716.613 -2084.456)" fill="#fff" fill-rule="evenodd"/>
    </g>
  </g>
</svg>
