<svg xmlns="http://www.w3.org/2000/svg" width="273.161" height="221.96" viewBox="0 0 273.161 221.96">
  <path id="Caminho_48" data-name="Caminho 48" d="M160.9,320.41c103.08,0,159.461-85.4,159.461-159.461,0-2.426,0-4.84-.164-7.244a114.029,114.029,0,0,0,27.961-29.01,111.864,111.864,0,0,1-32.189,8.818,56.239,56.239,0,0,0,24.639-31,112.313,112.313,0,0,1-35.587,13.6,56.1,56.1,0,0,0-95.508,51.114,159.111,159.111,0,0,1-115.5-58.555,56.086,56.086,0,0,0,17.351,74.813,55.627,55.627,0,0,1-25.437-7.015v.71a56.064,56.064,0,0,0,44.962,54.938,55.954,55.954,0,0,1-25.306.962,56.107,56.107,0,0,0,52.36,38.92,112.455,112.455,0,0,1-69.6,24.038A114.09,114.09,0,0,1,75,295.235a158.663,158.663,0,0,0,85.9,25.131" transform="translate(-75 -98.45)" fill="#1da1f2"/>
</svg>
