<svg id="brain-icon" xmlns="http://www.w3.org/2000/svg" width="25.278" height="18.017" viewBox="0 0 25.278 18.017">
  <g id="Grupo_2" data-name="Grupo 2" transform="translate(0)">
    <path id="Caminho_3" data-name="Caminho 3" d="M71.9,633.555c-.034-.034-.034-.052,0-.086l.034-.086a3.319,3.319,0,0,0,.412-1.614,3.629,3.629,0,0,0-2.971-3.486l-.1-.017a.074.074,0,0,1-.069-.069l-.017-.12a3.78,3.78,0,0,0-3.812-3,3.988,3.988,0,0,0-.91.1s-.137.034-.155.034a.092.092,0,0,1-.069-.052l-.069-.086a4.184,4.184,0,0,0-3.263-1.769,2.539,2.539,0,0,0-.361-.017,6.17,6.17,0,0,0-3.366,1.322.063.063,0,0,1-.052.017H57.1a6.184,6.184,0,0,0-2.026-.326,5.811,5.811,0,0,0-5.873,4.6v.086c-.017.017-.034.052-.052.052l-.086.034a3.882,3.882,0,0,0-1.975,3.074,4.416,4.416,0,0,0,1.168,3.177.077.077,0,0,1,0,.086,4.158,4.158,0,0,0-.12.927,3.561,3.561,0,0,0,2.215,3.245.36.36,0,0,1,.069.1,2.646,2.646,0,0,0,1.322,1.3,6.945,6.945,0,0,0,1.133.223,9.438,9.438,0,0,0,1.6.086,7.3,7.3,0,0,0,1.374-.12,4.9,4.9,0,0,0,1.8-.618.24.24,0,0,1,.069-.052l.876-.687c.017-.017.034-.034.052-.034s.034.017.069.034l.137.1a3.916,3.916,0,0,0,2.37.773,3.847,3.847,0,0,0,2.8-1.15c.017-.017.034-.017.069-.017h.034a6.221,6.221,0,0,0,2.421.549,4.2,4.2,0,0,0,.464-.017,4.751,4.751,0,0,0,3.039-2.009,2.788,2.788,0,0,0,2.3-2.8,3.321,3.321,0,0,0-.412-1.614Zm-1.133.206.206.395a2.2,2.2,0,0,1,.275,1.082,1.715,1.715,0,0,1-1.648,1.769.535.535,0,0,0-.412.275,3.587,3.587,0,0,1-2.3,1.683,2.2,2.2,0,0,1-.343.017,4.829,4.829,0,0,1-1.8-.395.077.077,0,0,1-.052-.1,5.2,5.2,0,0,0,.172-2.782l.052-.086a3.374,3.374,0,0,1,2.8-2.438.552.552,0,0,0-.1-1.1,4.56,4.56,0,0,0-3.194,1.992.069.069,0,0,1-.069.034h-.017a.064.064,0,0,1-.069-.051,7.641,7.641,0,0,0-.67-1.065.573.573,0,0,0-.429-.206.545.545,0,0,0-.343.137.559.559,0,0,0-.069.773c.069.086,1.872,2.421.721,4.808a2.865,2.865,0,0,1-3.967.532l-.412-.309a6.435,6.435,0,0,0-2.85-3.795,3.7,3.7,0,0,0-1.648-.395,5.328,5.328,0,0,0-2.232.549.638.638,0,0,0-.292.309.627.627,0,0,0,.034.429.511.511,0,0,0,.481.309.548.548,0,0,0,.24-.052,4.214,4.214,0,0,1,1.751-.429,2.72,2.72,0,0,1,1.185.258,5.053,5.053,0,0,1,2.215,2.919c.017.034,0,.069-.034.1l-.876.7a4.046,4.046,0,0,1-1.253.446c-.189.034-.361.052-.549.069h-.017a8.2,8.2,0,0,1-2.644-.034.505.505,0,0,0-.155-.034.441.441,0,0,1-.206-.086,1.378,1.378,0,0,1-.807-.739l-.137-.292a.5.5,0,0,0-.258-.275l-.292-.12a2.508,2.508,0,0,1-1.511-2.232,2.334,2.334,0,0,1,.155-.824l.034-.068a.532.532,0,0,0-.137-.6,3.77,3.77,0,0,1-1.1-2.576,2.754,2.754,0,0,1,1.391-2.2l.361-.206a2.52,2.52,0,0,1,1-.24,2.04,2.04,0,0,1,.549.086,2.384,2.384,0,0,1,1.339,1.443.55.55,0,0,0,.5.326.528.528,0,0,0,.223-.052.571.571,0,0,0,.292-.721,3.534,3.534,0,0,0-2.026-2.043,2.9,2.9,0,0,0-.859-.137,2.8,2.8,0,0,0-.395.034c-.034,0-.069-.017-.069-.034-.034-.034-.034-.069-.017-.086a4.813,4.813,0,0,1,4.6-3.039,5.153,5.153,0,0,1,1.958.378,2.825,2.825,0,0,1,1.631,1.786,4.3,4.3,0,0,1-.721,2.953.53.53,0,0,0,.12.756.554.554,0,0,0,.309.1.511.511,0,0,0,.446-.206,5.242,5.242,0,0,0,.962-3.554.1.1,0,0,1,.052-.086,1.584,1.584,0,0,1,.7-.223.871.871,0,0,1,.223.034,1.733,1.733,0,0,1,.979.807.537.537,0,0,0,.5.275.759.759,0,0,0,.258-.051.616.616,0,0,0,.258-.326.544.544,0,0,0-.052-.429,2.848,2.848,0,0,0-1.683-1.339,2.318,2.318,0,0,0-.481-.069,2.48,2.48,0,0,0-1.065.258h-.034c-.034,0-.052,0-.069-.034a4.016,4.016,0,0,0-1.03-1.133.069.069,0,0,1-.034-.069.131.131,0,0,1,.034-.086,4.414,4.414,0,0,1,2.2-.756,1.218,1.218,0,0,1,.258.017,3.238,3.238,0,0,1,2.455,1.253l.309.481a.588.588,0,0,0,.464.257c.034,0,.086-.017.12-.017l.567-.137a2.86,2.86,0,0,1,.67-.069,2.677,2.677,0,0,1,2.73,2.095l.1.532a.53.53,0,0,0,.412.446l.532.12a2.514,2.514,0,0,1,2.095,2.4,2.158,2.158,0,0,1-.275,1.082l-.206.395A.468.468,0,0,0,70.771,633.762Z" transform="translate(-47.073 -623.287)" fill="#5e5e5e"/>
  </g>
</svg>
