<svg id="left" xmlns="http://www.w3.org/2000/svg" width="45.308" height="29.147" viewBox="0 0 45.308 29.147">
  <path id="Caminho_1" data-name="Caminho 1" d="M32.95,6.227C28.9,7.29,19.177,10.147,16.862,11.145c-5.342,2.3-9.448,6.678-9.374,11.587.081,5.31,2.225,8.74,9.928,10.129,7.8,1.408,12.889,1.809,15.891,2.253a3.211,3.211,0,1,0,.845-6.356s3.991-.563,6.445-.836c2.9-.322,3.115-2.651,2.486-5.762-.643-3.178-2.887-8.681-4.019-11.506-1.439-3.6-2.895-5.272-6.114-4.427Z" transform="translate(1.936 -6.012)" fill="#ffdc5d"/>
  <path id="Caminho_2" data-name="Caminho 2" d="M33.125,30.751s.379-3.44-2.977-3.782c-1.971-.2-4.627-.526-5.632-.643-1.729-.2-2.092-1.69-1.65-2.977.437-1.27,3.138-7.925,3.782-9.616.478-1.255,1.717-.829,2.172.081.842,1.683,2.3,4.839,2.495,5.35.439,1.163-.925,1.971-1.569.8-.435-.789-2.052-4.586-2.052-4.586s-3.017,7.282-3.339,8.207c-.281.806.081,1.288.885,1.408s4.386.555,5.471.724c1.811.282,3.179,2.093,2.414,5.029Z" transform="translate(5.869 -4.217)" fill="#ef9645"/>
  <path id="Caminho_3" data-name="Caminho 3" d="M29.018,19.823s-1.288.564-2.293.925a.772.772,0,1,0,.4,1.489c1.046-.282,2.736-.724,2.736-.724ZM33.444,9.564c-.49-1.043-1.65-.443-1.368.4s4.546,11.023,4.949,12.069,1.046.8.724-.282-3.7-10.9-4.3-12.19Z" transform="translate(6.758 -5.236)" fill="#ef9645"/>
  <path id="Caminho_4" data-name="Caminho 4" d="M26.781,14.884a7.489,7.489,0,0,1-.555,4.826l3.066-1.121Z" transform="translate(6.782 -3.717)" fill="#ef9645"/>
  <path id="Caminho_5" data-name="Caminho 5" d="M18.706,10.194c-4.05,1.309-9.671,1.434-14.594.972C1.569,10.927,0,10.917,0,12.973V26.319c0,2.5.916,2.478,3.615,2.118,4.112-.547,6.455-1.544,10.381,1.7,2.739,2.262,12.333-22.4,4.71-19.939Z" transform="translate(0 -4.975)" fill="#ffdc5d"/>
</svg>
