<svg xmlns="http://www.w3.org/2000/svg" width="21.059" height="18.357" viewBox="0 0 21.059 18.357">
  <path id="paste-icon" d="M377.992,462.369H374.47v-.612a2.229,2.229,0,0,0-2.224-2.224h-5.119a2.229,2.229,0,0,0-2.224,2.224v.612h-3.522a2.239,2.239,0,0,0-2.224,2.224v11.074a2.229,2.229,0,0,0,2.224,2.224h16.611a2.229,2.229,0,0,0,2.224-2.224V464.593A2.239,2.239,0,0,0,377.992,462.369Zm-11.984-.612a1.1,1.1,0,0,1,1.119-1.1h5.119a1.1,1.1,0,0,1,1.119,1.1v.612h-7.358Zm13.1,13.91a1.109,1.109,0,0,1-1.119,1.119H361.381a1.108,1.108,0,0,1-1.119-1.119v-5.582a2.089,2.089,0,0,0,1.119.328h6.03v.537a2.226,2.226,0,0,0,2.224,2.209h.1a2.226,2.226,0,0,0,2.224-2.209v-.537h6.03a2.09,2.09,0,0,0,1.119-.328ZM368.53,470.95v-2.224a1.083,1.083,0,0,1,1.1-1.1h.1a1.083,1.083,0,0,1,1.1,1.1v2.224a1.093,1.093,0,0,1-1.1,1.1h-.1A1.093,1.093,0,0,1,368.53,470.95Zm10.582-2.761a1.1,1.1,0,0,1-1.119,1.1h-6.03v-.567a2.229,2.229,0,0,0-2.224-2.224h-.1a2.229,2.229,0,0,0-2.224,2.224v.567h-6.03a1.1,1.1,0,0,1-1.119-1.1v-3.6a1.105,1.105,0,0,1,1.119-1.1h16.611a1.105,1.105,0,0,1,1.119,1.1Z" transform="translate(-359.157 -459.533)" fill="#5e5e5e"/>
</svg>
