<svg xmlns="http://www.w3.org/2000/svg" width="21.91" height="21.922" viewBox="0 0 21.91 21.922">
  <path id="phone-icon" d="M377.014,338.461c-3.713,0-8.09-3.823-10.368-6.1a26.253,26.253,0,0,1-5.189-6.877c-.619-1.263-1.826-4.421.278-6.525a12.152,12.152,0,0,1,2.969-2.166,3.4,3.4,0,0,1,1.224-.251,3.059,3.059,0,0,1,2.381,1.164l2.243,2.768a3,3,0,0,1-.408,4.187l-.095.075a3.61,3.61,0,0,0-.348.3.366.366,0,0,0-.05.458,12.884,12.884,0,0,0,1.768,2.1,13.021,13.021,0,0,0,2.1,1.77.369.369,0,0,0,.5-.091c.05-.07.1-.128.159-.193s.116-.133.184-.219a3.058,3.058,0,0,1,2.307-1.054,2.976,2.976,0,0,1,1.87.654l2.775,2.212a3.127,3.127,0,0,1,.907,3.638,12.909,12.909,0,0,1-2.166,2.969A4.184,4.184,0,0,1,377.014,338.461Zm-11.121-20.626a1.786,1.786,0,0,0-.663.131,13.7,13.7,0,0,0-2.58,1.9c-.743.743-1.348,2.22-.012,5.034a25.36,25.36,0,0,0,4.922,6.5c3.636,3.636,7.08,5.721,9.453,5.721a2.88,2.88,0,0,0,2.12-.81,11.408,11.408,0,0,0,1.87-2.576,1.752,1.752,0,0,0-.569-2.077l-2.771-2.211a1.887,1.887,0,0,0-1.071-.362,1.777,1.777,0,0,0-1.294.615c-.485.555-.83.934-.932,1.037a.441.441,0,0,1-.4.172c-.414,0-1.423-.313-3.528-2.417-1.963-1.963-2.781-3.4-2.245-3.932.1-.1.482-.447,1.035-.93a1.69,1.69,0,0,0,.219-2.371l-2.209-2.768A1.611,1.611,0,0,0,365.894,317.835Z" transform="translate(-360.548 -316.539)" fill="#5e5e5e"/>
</svg>
