<svg xmlns="http://www.w3.org/2000/svg" width="45.159" height="29.147" viewBox="0 0 45.159 29.147">
  <g id="Grupo_1" data-name="Grupo 1" transform="translate(-954.888 -358)">
    <g id="right" transform="translate(954.888 358)">
      <path id="Caminho_6" data-name="Caminho 6" d="M10.542,6.227c4.049,1.062,13.773,3.919,16.088,4.917,5.342,2.3,9.448,6.678,9.374,11.587-.081,5.31-2.225,8.74-9.928,10.129-7.8,1.408-12.889,1.809-15.891,2.253a3.211,3.211,0,1,1-.845-6.356S5.349,28.2,2.9,27.922C0,27.6-.22,25.271.409,22.16c.643-3.178,2.887-8.681,4.019-11.506,1.44-3.6,2.9-5.272,6.114-4.427Z" transform="translate(-0.12 -6.012)" fill="#ffdc5d"/>
      <path id="Caminho_7" data-name="Caminho 7" d="M5.183,30.751s-.379-3.44,2.977-3.782c1.971-.2,4.627-.526,5.632-.643,1.729-.2,2.092-1.69,1.65-2.977C15,22.08,12.3,15.424,11.659,13.734c-.478-1.255-1.717-.829-2.172.081-.842,1.683-2.3,4.839-2.495,5.35-.439,1.163.925,1.971,1.569.8.435-.789,2.052-4.586,2.052-4.586s3.017,7.282,3.339,8.207c.281.806-.081,1.288-.885,1.408s-4.386.555-5.471.724C5.785,26,4.417,27.815,5.183,30.751Z" transform="translate(1.133 -4.217)" fill="#ef9645"/>
      <path id="Caminho_8" data-name="Caminho 8" d="M9.507,19.823s1.288.564,2.293.925a.772.772,0,1,1-.4,1.489c-1.046-.282-2.736-.724-2.736-.724l.846-1.69ZM5.081,9.564c.49-1.043,1.65-.443,1.368.4S1.9,20.99,1.5,22.035s-1.046.8-.724-.282,3.7-10.9,4.3-12.19Z" transform="translate(0.027 -5.236)" fill="#ef9645"/>
      <path id="Caminho_9" data-name="Caminho 9" d="M9.969,14.884a7.489,7.489,0,0,0,.555,4.826L7.458,18.588Z" transform="translate(1.777 -3.717)" fill="#ef9645"/>
      <path id="Caminho_10" data-name="Caminho 10" d="M21.851,10.194c4.05,1.309,9.6,1.434,14.518.972,2.544-.238,4.038-.248,4.038,1.807V26.319c0,2.5-.841,2.478-3.539,2.118-4.112-.549-6.418-1.546-10.343,1.7C23.785,32.394,14.229,7.732,21.851,10.194Z" transform="translate(4.752 -4.975)" fill="#ffdc5d"/>
    </g>
  </g>
</svg>
