<svg id="aftereffects" xmlns="http://www.w3.org/2000/svg" width="300.556" height="293.042" viewBox="0 0 300.556 293.042">
  <g id="Grupo_11" data-name="Grupo 11" transform="translate(0 0)">
    <path id="Caminho_24" data-name="Caminho 24" d="M-405.428-74.891h194.109A53.224,53.224,0,0,1-158.1-21.668V164.927a53.224,53.224,0,0,1-53.223,53.223H-405.428a53.224,53.224,0,0,1-53.223-53.223V-21.668a53.224,53.224,0,0,1,53.223-53.223" transform="translate(458.651 74.891)" fill="#00005b"/>
    <path id="Caminho_25" data-name="Caminho 25" d="M-345.39,85.276h-46.575l-9.476,29.493a2.373,2.373,0,0,1-2.419,1.815h-23.59q-2.019,0-1.413-2.218L-388.538-1.289c.4-1.21.807-2.392,1.21-3.94a42.964,42.964,0,0,0,.806-8.165,1.249,1.249,0,0,1,1.059-1.411,1.274,1.274,0,0,1,.352,0h32.059q1.407,0,1.613,1.008l45.768,128.365q.6,2.017-1.21,2.016h-26.211a1.864,1.864,0,0,1-2.016-1.411Zm-39.316-24.868h31.856q-1.21-4.031-2.823-9.073T-359.1,40.548q-1.815-5.746-3.63-11.494t-3.326-11.089q-1.512-5.339-2.723-9.778h-.2a162.542,162.542,0,0,1-4.234,16.13q-2.825,9.073-5.746,18.549t-5.746,17.541" transform="translate(466.132 90.048)" fill="#99f"/>
    <path id="Caminho_26" data-name="Caminho 26" d="M-257.58,67.742H-297.3a28.3,28.3,0,0,0,3.831,11.108,20.747,20.747,0,0,0,9.173,7.561,38.319,38.319,0,0,0,16.03,3.141,72.491,72.491,0,0,0,13-1.428A47.952,47.952,0,0,0-244.08,85.21c.67-.536,1.008-.2,1.008,1.008v19.154a2.988,2.988,0,0,1-.3,1.512,2.9,2.9,0,0,1-.908.908,51.259,51.259,0,0,1-12.491,3.721,88.575,88.575,0,0,1-17.744,1.513q-14.318,0-23.993-4.436a42.777,42.777,0,0,1-15.725-11.9,46.62,46.62,0,0,1-8.671-16.433,64.742,64.742,0,0,1-2.621-18.246,63.581,63.581,0,0,1,3.126-19.86,51.9,51.9,0,0,1,9.376-17.138,45.027,45.027,0,0,1,15.122-11.9C-291.991,10.232-285,9.2-276.936,9.2a45.488,45.488,0,0,1,19.456,3.831A34.283,34.283,0,0,1-244.273,23a45.888,45.888,0,0,1,7.46,14.215,50.671,50.671,0,0,1,2.419,15.323q0,4.437-.3,8.065t-.5,5.242a1.828,1.828,0,0,1-1.815,1.613q-1.21,0-4.134.3t-7.258.4c-2.892.07-5.949-.422-9.173-.422M-297.3,49.374h26.413q4.839,0,7.157-.1a7.036,7.036,0,0,0,2.924-.968v-1.21a16.128,16.128,0,0,0-.806-4.637,16.471,16.471,0,0,0-16.331-11.492,17.513,17.513,0,0,0-16.634,9.476,29.133,29.133,0,0,0-2.721,8.933" transform="translate(492.24 96.104)" fill="#99f"/>
  </g>
</svg>
