<svg id="css" xmlns="http://www.w3.org/2000/svg" width="239.927" height="338.658" viewBox="0 0 239.927 338.658">
  <g id="g3013" transform="translate(0 0)">
    <path id="polygon2989" d="M314.56,100.62,292.7,345.485,194.45,372.724l-97.982-27.2L74.633,100.62Z" transform="translate(-74.633 -34.066)" fill="#264de4"/>
    <path id="polygon2991" d="M335.393,340.142l18.679-209.248H256V362.153Z" transform="translate(-136.036 -44.315)" fill="#2965f1"/>
    <path id="polygon2993" d="M150.31,268.217,153,298.253h67.216V268.217Z" transform="translate(-100.254 -90.807)" fill="#ebebeb"/>
    <path id="polygon2995" d="M217.449,176.3H142.132l2.73,30.037h72.587Z" transform="translate(-97.485 -59.69)" fill="#ebebeb"/>
    <path id="polygon2997" d="M222.283,400.536v-31.25l-.132.035L188.7,360.288l-2.138-23.955H156.409l4.208,47.161,61.527,17.08Z" transform="translate(-102.319 -113.868)" fill="#ebebeb"/>
    <path id="path2999" d="M160,0h36.379V15.213H175.213V30.426h21.166V45.639H160Z" transform="translate(-103.535)"/>
    <path id="path3001" d="M226,0h36.379V13.229H241.213v2.646h21.166V46.3H226V32.411h21.166V29.765H226Z" transform="translate(-125.88)"/>
    <path id="path3003" d="M292,0h36.379V13.229H307.213v2.646h21.166V46.3H292V32.411h21.166V29.765H292Z" transform="translate(-148.224)"/>
    <path id="polygon3005" d="M292.829,267.135l-3.486,38.955-33.5,9.042v31.249l61.576-17.066.452-5.075,7.058-79.076.733-8.066,5.423-60.794H255.843v30.037h42.324L295.434,237.1H255.843v30.036Z" transform="translate(-135.983 -59.69)" fill="#fff"/>
  </g>
</svg>
