<svg id="html" xmlns="http://www.w3.org/2000/svg" width="239.93" height="338.6" viewBox="0 0 239.93 338.6">
  <path id="Caminho_5" data-name="Caminho 5" d="M108.4,0h15.211V15.075h14.021V0h15.211V45.62H137.632V30.414H123.744V45.62H108.4m64.549-30.414H159.524V0h42.129V15.207H188.161V45.62H172.949M208.332,0h15.939l9.788,16.066L243.848,0h15.939V45.62H244.575V23.008l-10.648,16.4-10.648-16.4V45.62H208.332M267.326,0h15.211V30.546H304.1V45.62H267.326" transform="translate(-86.053)"/>
  <path id="Caminho_6" data-name="Caminho 6" d="M96.424,345.571,74.6,100.6H314.53L292.706,345.439l-98.34,27.248" transform="translate(-74.6 -34.087)" fill="#e44d26"/>
  <path id="Caminho_7" data-name="Caminho 7" d="M256,362.077V131h98.05L335.34,339.928" transform="translate(-136.005 -44.303)" fill="#f16529"/>
  <path id="Caminho_8" data-name="Caminho 8" d="M142,176.3h75.373v30.017H174.926l2.777,30.744h39.67v29.951H150.2m1.322,15.074H181.67l2.116,24,33.587,8.992v31.339l-61.62-17.19" transform="translate(-97.421 -59.678)" fill="#ebebeb"/>
  <path id="Caminho_9" data-name="Caminho 9" d="M331.04,176.3H255.8v30.017h72.463m-2.711,30.744H255.8v30.017h37.025l-3.5,39.009L255.8,315.078v31.207l61.488-17.058" transform="translate(-135.954 -59.678)" fill="#fff"/>
</svg>
