<svg id="illustrator" xmlns="http://www.w3.org/2000/svg" width="300.556" height="293.042" viewBox="0 0 300.556 293.042">
  <g id="Grupo_12" data-name="Grupo 12" transform="translate(0 0)">
    <path id="Caminho_27" data-name="Caminho 27" d="M-699.882-70.392h194.109a53.224,53.224,0,0,1,53.223,53.223V169.426a53.224,53.224,0,0,1-53.223,53.223H-699.882a53.223,53.223,0,0,1-53.223-53.223V-17.169a53.223,53.223,0,0,1,53.223-53.223" transform="translate(753.105 70.392)" fill="#300"/>
    <path id="Caminho_28" data-name="Caminho 28" d="M-619.959,90.351h-46.575l-9.476,29.437a2.373,2.373,0,0,1-2.419,1.815h-23.59q-2.017,0-1.411-2.218L-663.108,3.249q.607-1.813,1.211-4.133a43.161,43.161,0,0,0,.807-8.165,1.248,1.248,0,0,1,1.058-1.411,1.193,1.193,0,0,1,.353,0h32.057q1.409,0,1.613,1.008l45.77,129.039q.6,2.017-1.21,2.016H-607.66a1.866,1.866,0,0,1-2.017-1.411Zm-39.316-25.4h31.855q-1.208-4.031-2.821-9.073t-3.428-10.787q-1.816-5.746-3.629-11.492T-640.625,22.5q-1.514-5.339-2.723-9.778h-.2a163.209,163.209,0,0,1-4.234,16.13q-2.825,9.073-5.747,18.549T-659.275,64.947Z" transform="translate(765.603 85.51)" fill="#ff9a00"/>
    <path id="Caminho_29" data-name="Caminho 29" d="M-580.265,12.94A14.622,14.622,0,0,1-591.353,8.5a15.948,15.948,0,0,1-4.235-11.492,14.8,14.8,0,0,1,4.537-11.191,15.586,15.586,0,0,1,11.191-4.334q7.258,0,11.391,4.334a15.562,15.562,0,0,1,4.133,11.191A15.739,15.739,0,0,1-568.671,8.5a15.472,15.472,0,0,1-11.594,4.436m-13.912,108.675V25.239q0-1.815,1.613-1.815h24.8q1.61,0,1.613,1.815v96.376q0,2.017-1.613,2.016h-24.6q-1.815,0-1.814-2.016" transform="translate(792.845 83.481)" fill="#ff9a00"/>
  </g>
</svg>
