<svg xmlns="http://www.w3.org/2000/svg" width="275" height="275" viewBox="0 0 275 275">
  <g id="javascript" transform="translate(0.283 0.282)">
    <rect id="Retângulo_26" data-name="Retângulo 26" width="275" height="275" transform="translate(-0.283 -0.282)" fill="#f7df1e"/>
    <path id="Caminho_10" data-name="Caminho 10" d="M277.875,375.679c5.523,9.018,12.709,15.647,25.418,15.647,10.676,0,17.5-5.336,17.5-12.709,0-8.835-7.007-11.965-18.759-17.1l-6.441-2.764C277,350.827,264.644,340.9,264.644,319.926c0-19.325,14.724-34.036,37.735-34.036,16.382,0,28.16,5.7,36.647,20.63L318.961,319.4c-4.418-7.921-9.183-11.042-16.582-11.042-7.547,0-12.33,4.788-12.33,11.042,0,7.73,4.788,10.859,15.843,15.647l6.441,2.759c21.892,9.388,34.253,18.959,34.253,40.477,0,23.2-18.223,35.907-42.7,35.907-23.929,0-39.389-11.4-46.953-26.349Zm-91.021,2.233c4.048,7.181,7.73,13.253,16.583,13.253,8.465,0,13.806-3.312,13.806-16.191V287.361h25.766v87.961c0,26.68-15.642,38.823-38.475,38.823-20.63,0-32.577-10.676-38.653-23.535Z" transform="translate(-93.692 -161.469)"/>
  </g>
</svg>
