<svg xmlns="http://www.w3.org/2000/svg" width="200.014" height="192.798" viewBox="0 0 200.014 192.798">
  <path id="jquery" d="M12.813,45.716c-17.7,25.453-15.509,58.561-1.976,85.677.313.65.657,1.288.988,1.926l.625,1.219c.125.238.263.469.394.7.231.438.469.838.707,1.263l1.295,2.214.738,1.213,1.5,2.345.638.988c.707,1.051,1.426,2.1,2.17,3.127l.425.575q.967,1.329,1.976,2.627l.75.951,1.826,2.251.7.838c.832.982,1.689,1.957,2.545,2.908a1.93,1.93,0,0,1,.15.163q1.274,1.382,2.589,2.727l.832.838,2.064,2.026.844.813q1.393,1.314,2.833,2.577l3.1,2.627,1.063.851,2.145,1.676,1.144.876,2.408,1.726,1.126.794c.769.532,1.551,1.038,2.339,1.545l1.013.675q1.811,1.15,3.658,2.239l1.013.625,2.752,1.538c.5.269,1.013.525,1.52.782l1.964,1.019.457.219.813.388,3.114,1.438.657.294q1.8.786,3.633,1.507l.876.35,3.427,1.27.438.15q1.9.654,3.815,1.251l.926.275a32.1,32.1,0,0,0,3.94,1.113c85.639,15.616,110.5-51.469,110.5-51.469-20.888,27.217-57.973,34.4-93.182,26.4-1.332-.3-2.627-.713-3.921-1.1l-.976-.294q-1.9-.584-3.777-1.232l-.519-.188q-1.672-.593-3.327-1.232l-.938-.375q-1.813-.713-3.6-1.5l-.719-.313L81.286,158.2l-.876-.419c-.788-.375-1.563-.794-2.345-1.251l-1.563-.813c-.951-.5-1.876-1.038-2.814-1.576l-.951-.532q-1.847-1.09-3.658-2.239c-.331-.213-.657-.438-.988-.657l-2.6-1.732a8.1,8.1,0,0,1-.838-.588l-2.464-1.782-1.094-.826-2.22-1.739-.988-.794-2.764-2.333q-.151-.132-.313-.25L51.9,138.022l-.813-.788L49.01,135.17l-.813-.813c-.876-.894-1.726-1.795-2.5-2.714a1.307,1.307,0,0,1-.125-.138q-1.328-1.458-2.6-2.964l-.625-.813-1.876-2.314-.625-.857-2.164-2.877C18.054,95.09,11.037,58.33,26.634,28.187m41.15-3.909c-12.808,18.43-12.114,43.151-2.126,62.588a81.673,81.673,0,0,0,5.666,9.456c1.92,2.752,4.046,6.022,6.592,8.23.926,1.019,1.889,2,2.877,2.983l.75.75q1.434,1.4,2.933,2.727c.044.031.075.075.125.106,1.138,1,2.289,1.876,3.458,2.864l.775.607q1.76,1.357,3.59,2.62l.106.075c.538.375,1.088.719,1.638,1.082.263.169.513.35.775.513q1.311.841,2.658,1.626l.375.219,2.351,1.251c.275.156.625.288.838.438l1.645.851c.081.044.169.075.25.113q1.692.843,3.427,1.595l.75.313q1.4.593,2.814,1.138l1.2.438q1.284.467,2.583.894l1.169.375a31.082,31.082,0,0,0,3.734,1.082c66.121,10.957,81.387-40.024,81.387-40.024-13.758,19.825-40.4,29.268-68.842,21.888q-1.886-.5-3.746-1.082c-.375-.113-.75-.238-1.126-.363l-2.627-.9-1.251-.438q-1.416-.546-2.814-1.138l-.763-.313q-1.745-.759-3.452-1.6l-1.732-.876-1-.513q-1.1-.6-2.189-1.232l-.525-.294q-1.342-.786-2.652-1.626c-.269-.169-.532-.356-.8-.532l-1.72-1.138q-1.817-1.259-3.565-2.614l-.813-.625C88,85.959,78.2,72.526,73.506,57.3c-4.915-15.791-3.859-33.52,4.659-47.9m35.847-1.144c-7.542,11.163-8.293,24.909-3.052,37.179,5.522,13.027,16.841,23.239,30.056,28.142l1.638.625.725.225,2.358.625c36.51,7.054,46.4-18.736,49.049-22.532C186.112,65.009,171.535,68,153.649,63.665c-1.413-.344-2.964-.857-4.328-1.338a52.908,52.908,0,0,1-5.141-2.133,53.158,53.158,0,0,1-9.012-5.5c-16-12.139-25.947-35.365-15.5-54.227" transform="translate(-0.113 -0.47)" fill="#0868ac"/>
</svg>
