<svg id="photoshop" xmlns="http://www.w3.org/2000/svg" width="300.556" height="293.042" viewBox="0 0 300.556 293.042">
  <g id="Grupo_13" data-name="Grupo 13" transform="translate(0 0)">
    <path id="Caminho_30" data-name="Caminho 30" d="M-982.651-70.392h194.109a53.223,53.223,0,0,1,53.223,53.223V169.426a53.223,53.223,0,0,1-53.223,53.223H-982.651a53.222,53.222,0,0,1-53.223-53.223V-17.169a53.223,53.223,0,0,1,53.223-53.223" transform="translate(1035.874 70.392)" fill="#001e36"/>
    <path id="Caminho_31" data-name="Caminho 31" d="M-981.833,120.068V-8.769c0-.939.4-1.411,1.211-1.411,2.148,0,4.109-.033,7.067-.1s6.148-.134,9.578-.2,7.057-.133,10.888-.2,7.628-.1,11.392-.1q15.319,0,25.807,3.831A44.791,44.791,0,0,1-899.055,3.328a39.46,39.46,0,0,1,9.174,14.214,47.161,47.161,0,0,1,2.823,16.231q0,16.132-7.46,26.614A42.157,42.157,0,0,1-914.68,75.61c-8.469,3.16-17.878,4.23-28.227,4.23q-4.437,0-6.25-.1t-5.444-.1v40.227a1.606,1.606,0,0,1-1.361,1.816,1.716,1.716,0,0,1-.453,0h-24.006q-1.413,0-1.411-1.613M-954.6,14.014V56.035q2.619.2,4.838.2h6.655a47.269,47.269,0,0,0,14.415-2.3,21.725,21.725,0,0,0,10.283-6.654q3.932-4.634,3.932-12.9A20.392,20.392,0,0,0-917.4,23.288a18.815,18.815,0,0,0-8.771-7.158,37.374,37.374,0,0,0-14.719-2.518q-4.839,0-8.568.1t-5.141.3" transform="translate(1049.509 85.432)" fill="#31a8ff"/>
    <path id="Caminho_32" data-name="Caminho 32" d="M-830.822,42.159a47.115,47.115,0,0,0-12-4.234,63.667,63.667,0,0,0-14.013-1.613,26.037,26.037,0,0,0-7.562.908,6.792,6.792,0,0,0-3.931,2.518,6.354,6.354,0,0,0-1.008,3.429,5.355,5.355,0,0,0,1.21,3.226,13.731,13.731,0,0,0,4.234,3.326,84.749,84.749,0,0,0,8.871,4.134,87.9,87.9,0,0,1,19.256,9.173,29.277,29.277,0,0,1,9.878,10.384,27.676,27.676,0,0,1,2.924,12.9,28.983,28.983,0,0,1-4.839,16.633,31.841,31.841,0,0,1-14.012,11.191q-9.178,4.031-22.683,4.032a81.993,81.993,0,0,1-17.036-1.613,54.277,54.277,0,0,1-12.8-4.034,2.609,2.609,0,0,1-1.411-2.418V88.33a1.182,1.182,0,0,1,.5-1.11.979.979,0,0,1,1.108.1,53.855,53.855,0,0,0,15.525,6.151,64.109,64.109,0,0,0,14.718,1.915q7.056,0,10.384-1.815a5.7,5.7,0,0,0,3.326-5.242q0-2.617-3.024-5.041t-12.3-5.847a74.125,74.125,0,0,1-17.843-9.073,30.773,30.773,0,0,1-9.478-10.585,27.8,27.8,0,0,1-2.923-12.8A28.9,28.9,0,0,1-891.51,29.86,30.758,30.758,0,0,1-878.4,18.367q8.87-4.431,22.178-4.436A98.345,98.345,0,0,1-840.7,15.04a40.716,40.716,0,0,1,10.809,2.924,1.839,1.839,0,0,1,1.21,1.108,5.6,5.6,0,0,1,.2,1.512V40.949a1.354,1.354,0,0,1-.6,1.21,1.95,1.95,0,0,1-1.736,0" transform="translate(1071.229 91.667)" fill="#31a8ff"/>
  </g>
</svg>
