<svg xmlns="http://www.w3.org/2000/svg" xmlns:xlink="http://www.w3.org/1999/xlink" width="255.816" height="153.49" viewBox="0 0 255.816 153.49">
  <defs>
    <linearGradient id="linear-gradient" y1="-0.889" x2="1" y2="1.889" gradientUnits="objectBoundingBox">
      <stop offset="0" stop-color="#2383ae"/>
      <stop offset="1" stop-color="#6dd7b9"/>
    </linearGradient>
  </defs>
  <path id="tailwind" d="M63.954,63.963Q76.743,12.8,127.908,12.8c51.163,0,57.559,38.372,83.14,44.768q25.584,6.4,44.768-19.186-12.789,51.161-63.954,51.163c-51.163,0-57.559-38.372-83.14-44.768q-25.584-6.4-44.768,19.186ZM0,140.708Q12.789,89.547,63.954,89.545c51.163,0,57.559,38.372,83.14,44.768q25.584,6.4,44.768-19.186-12.789,51.161-63.954,51.163c-51.163,0-57.559-38.372-83.14-44.768Q19.184,115.124,0,140.708Z" transform="translate(0 -12.8)" fill-rule="evenodd" fill="url(#linear-gradient)"/>
</svg>
