<svg xmlns="http://www.w3.org/2000/svg" width="230.156" height="228.83" viewBox="0 0 230.156 228.83">
  <g id="vscode" transform="translate(0.156 -0.66)">
    <path id="Caminho_11" data-name="Caminho 11" d="M221.86,24.9,174.466,2.081a14.329,14.329,0,0,0-16.347,2.778L2.97,146.319a9.584,9.584,0,0,0,.01,14.174l12.673,11.521a9.584,9.584,0,0,0,12.239.544L214.728,30.82A9.518,9.518,0,0,1,230,38.4v-.55A14.376,14.376,0,0,0,221.86,24.9Z" transform="translate(0 0)" fill="#0065a9"/>
    <g id="Grupo_3" data-name="Grupo 3" transform="translate(-0.156 55.644)">
      <path id="Caminho_12" data-name="Caminho 12" d="M221.86,211.462l-47.393,22.819a14.331,14.331,0,0,1-16.347-2.778L2.97,90.043a9.584,9.584,0,0,1,.01-14.174L15.654,64.348A9.584,9.584,0,0,1,27.893,63.8L214.728,205.541A9.518,9.518,0,0,0,230,197.958v.551A14.377,14.377,0,0,1,221.86,211.462Z" transform="translate(0.156 -61.856)" fill="#007acc"/>
    </g>
    <g id="Grupo_4" data-name="Grupo 4" transform="translate(158.12 0.66)">
      <path id="Caminho_13" data-name="Caminho 13" d="M192.349,228.073A14.335,14.335,0,0,1,176,225.291a8.422,8.422,0,0,0,14.376-5.955V10.814A8.421,8.421,0,0,0,176,4.859a14.335,14.335,0,0,1,16.349-2.782l47.385,22.788A14.376,14.376,0,0,1,247.88,37.82V192.331a14.375,14.375,0,0,1-8.146,12.955Z" transform="translate(-176 -0.66)" fill="#1f9cf0"/>
    </g>
    <g id="Grupo_5" data-name="Grupo 5" transform="translate(-0.156 0.66)" opacity="0.25">
      <path id="Caminho_14" data-name="Caminho 14" d="M162.952,228.512a14.318,14.318,0,0,0,11.41-.438l47.356-22.788a14.376,14.376,0,0,0,8.141-12.955V37.82a14.377,14.377,0,0,0-8.14-12.956L174.362,2.077a14.315,14.315,0,0,0-16.339,2.782L67.365,87.568,27.876,57.593a9.574,9.574,0,0,0-12.232.544L2.979,69.658a9.588,9.588,0,0,0-.01,14.174l34.246,31.243L2.969,146.318a9.588,9.588,0,0,0,.01,14.174l12.665,11.521a9.574,9.574,0,0,0,12.232.544l39.489-29.976,90.658,82.71A14.3,14.3,0,0,0,162.952,228.512Zm9.439-165.654L103.6,115.075l68.789,52.216Z" transform="translate(0.156 -0.66)" fill="#fff" fill-rule="evenodd"/>
    </g>
  </g>
</svg>
