<svg xmlns="http://www.w3.org/2000/svg" width="300.56" height="293.046" viewBox="0 0 300.56 293.046">
  <g id="xd" transform="translate(3103 1708.834)">
    <path id="Caminho_33" data-name="Caminho 33" d="M-994.819,230.275h194.112A53.224,53.224,0,0,1-747.483,283.5V470.1a53.224,53.224,0,0,1-53.224,53.224H-994.819a53.223,53.223,0,0,1-53.224-53.224V283.5a53.224,53.224,0,0,1,53.224-53.224" transform="translate(-2054.957 -1939.109)" fill="#470137"/>
    <path id="Caminho_34" data-name="Caminho 34" d="M-901.382,292.182l-36.673,60.532,39.237,64.277a2.023,2.023,0,0,1,.2,1.478c-.132.462-.591.171-1.38.3h-28c-1.972,0-3.352-.069-4.141-1.384q-3.948-7.688-7.887-15.28t-8.379-15.48q-4.436-7.881-8.775-15.969h-.2q-3.948,7.89-8.183,15.774T-973.94,402.1q-4.141,7.791-8.478,15.478c-.527,1.181-1.449,1.3-2.76,1.3h-27.012c-.524,0-.819.208-.888-.32a1.988,1.988,0,0,1,.3-1.38l38.054-62.5-37.068-62.7q-.591-.786-.2-1.282a1.432,1.432,0,0,1,1.183-.492h27.8a4.075,4.075,0,0,1,1.775.3,3.585,3.585,0,0,1,1.183,1.085q3.549,7.888,7.887,15.772t8.773,15.576q4.436,7.691,8.183,15.578h.2q3.942-8.083,7.986-15.774t8.28-15.478q4.238-7.787,8.183-15.477a3.034,3.034,0,0,1,.789-1.282,2.867,2.867,0,0,1,1.577-.3h25.829a1.13,1.13,0,0,1,1.368.825,1.129,1.129,0,0,1-.382,1.145" transform="translate(-2047.107 -1922.641)" fill="#ff61f6"/>
    <path id="Caminho_35" data-name="Caminho 35" d="M-866.231,423.278a61.093,61.093,0,0,1-26.321-5.522,41.841,41.841,0,0,1-18.436-16.66q-6.7-11.138-6.7-27.9a51.5,51.5,0,0,1,6.7-25.829,49.226,49.226,0,0,1,19.52-18.928q12.815-7.1,30.955-7.1.985,0,2.563.1t3.746.3V282.892c0-.917.394-1.38,1.183-1.38h24.843a1.047,1.047,0,0,1,1.183.888,1.086,1.086,0,0,1,0,.3V399.222q0,3.354.3,7.3t.494,7.1a2.038,2.038,0,0,1-1.183,1.973A97.928,97.928,0,0,1-847.3,421.5a107.127,107.127,0,0,1-18.928,1.775m12.027-24.45V345a19.558,19.558,0,0,0-3.253-.593,39.435,39.435,0,0,0-4.043-.2,30.448,30.448,0,0,0-13.8,3.155,26.952,26.952,0,0,0-10.351,9.071q-4.043,5.913-4.043,15.575a34.8,34.8,0,0,0,2.07,12.619,24.019,24.019,0,0,0,5.522,8.675,21,21,0,0,0,8.28,4.93,32.486,32.486,0,0,0,10.155,1.577q2.759,0,5.126-.2a21.13,21.13,0,0,0,4.338-.79" transform="translate(-2019.03 -1924.794)" fill="#ff61f6"/>
  </g>
</svg>
